<svg xmlns="http://www.w3.org/2000/svg" viewBox="0 0 1200 800" fill="none">
  <defs>
    <linearGradient id="bg" x1="0" x2="0" y1="0" y2="1">
      <stop offset="0%" stop-color="#f1eae1" />
      <stop offset="100%" stop-color="#d9cfc4" />
    </linearGradient>
  </defs>
  <rect width="1200" height="800" fill="url(#bg)" rx="36" />
  <rect x="180" y="420" width="840" height="180" rx="28" fill="#fdfcfb" stroke="#cbbeb1" stroke-width="8" />
  <rect x="220" y="360" width="760" height="110" rx="22" fill="#b29f8c" />
  <rect x="200" y="470" width="240" height="120" rx="20" fill="#e3d5c5" />
  <rect x="520" y="470" width="240" height="120" rx="20" fill="#e3d5c5" />
  <rect x="840" y="470" width="120" height="120" rx="18" fill="#d14f4f" />
  <rect x="240" y="250" width="240" height="120" rx="26" fill="#f0f0f0" stroke="#cbbeb1" stroke-width="8" />
  <rect x="520" y="250" width="240" height="120" rx="26" fill="#f7f0e7" stroke="#cbbeb1" stroke-width="8" />
  <rect x="800" y="250" width="160" height="120" rx="26" fill="#f0d36f" stroke="#cbbeb1" stroke-width="8" />
  <circle cx="280" cy="520" r="32" fill="#f9f4ef" stroke="#cbbeb1" stroke-width="8" />
  <circle cx="560" cy="520" r="32" fill="#f9f4ef" stroke="#cbbeb1" stroke-width="8" />
  <circle cx="880" cy="520" r="28" fill="#f9f4ef" stroke="#cbbeb1" stroke-width="8" />
  <path d="M120 600h960" stroke="#cbbeb1" stroke-width="16" stroke-linecap="round" />
  <text x="140" y="180" font-family="'Playfair Display', serif" font-size="64" fill="#503c31">Suite matrimoniale</text>
  <text x="140" y="230" font-family="Inter" font-size="28" fill="#7a6b60">Letto king con bagno en-suite e luci soffuse</text>
</svg>
