<svg xmlns="http://www.w3.org/2000/svg" viewBox="0 0 1200 800" fill="none">
  <rect width="1200" height="800" rx="36" fill="#f7f2eb" />
  <path d="M360 520c30 50 100 70 200 70s170-20 200-70" stroke="#d1b191" stroke-width="16" stroke-linecap="round" />
  <path d="M500 540c20 0 40-120 0-220" stroke="#a87b4f" stroke-width="14" />
  <path d="M700 540c-20 0-40-120 0-220" stroke="#a87b4f" stroke-width="14" />
  <path d="M470 320 540 200l60 20-60 120z" fill="#f4e4c6" stroke="#c9b292" stroke-width="10" />
  <path d="M730 320 660 200l-60 20 60 120z" fill="#f4e4c6" stroke="#c9b292" stroke-width="10" />
  <path d="m540 200 60 20 60-20-60-80z" fill="#f2d792" stroke="#c9b292" stroke-width="10" />
  <path d="m660 200-60 20-60-20 60-80z" fill="#f2d792" stroke="#c9b292" stroke-width="10" />
  <circle cx="600" cy="140" r="26" fill="#d35050" />
  <text x="300" y="670" font-family="'Playfair Display', serif" font-size="64" fill="#503c31">Welcome set</text>
  <text x="300" y="720" font-family="Inter" font-size="26" fill="#7a6b60">Bollicine, calici e dettagli di accoglienza</text>
</svg>
