<svg xmlns="http://www.w3.org/2000/svg" viewBox="0 0 1200 800" fill="none">
  <defs>
    <linearGradient id="sky3" x1="0" x2="0" y1="0" y2="1">
      <stop offset="0%" stop-color="#b8e4ff" />
      <stop offset="100%" stop-color="#6bb3e6" />
    </linearGradient>
  </defs>
  <rect width="1200" height="800" rx="36" fill="url(#sky3)" />
  <rect x="140" y="300" width="220" height="360" rx="18" fill="#fdfcfb" stroke="#c6b8ac" stroke-width="10" />
  <rect x="380" y="240" width="260" height="420" rx="18" fill="#f7f0e7" stroke="#c6b8ac" stroke-width="10" />
  <rect x="680" y="280" width="240" height="380" rx="18" fill="#fdfcfb" stroke="#c6b8ac" stroke-width="10" />
  <rect x="960" y="340" width="120" height="320" rx="14" fill="#f7f0e7" stroke="#c6b8ac" stroke-width="8" />
  <rect x="420" y="210" width="180" height="40" rx="12" fill="#d35050" />
  <rect x="720" y="240" width="160" height="30" rx="10" fill="#d35050" />
  <rect x="180" y="330" width="140" height="160" rx="10" fill="#e0d2c6" />
  <rect x="430" y="280" width="160" height="260" rx="12" fill="#e0d2c6" />
  <rect x="720" y="320" width="140" height="220" rx="12" fill="#e0d2c6" />
  <rect x="980" y="380" width="80" height="200" rx="10" fill="#e0d2c6" />
  <rect x="120" y="620" width="960" height="80" rx="16" fill="#2d2d2d" />
  <rect x="160" y="640" width="120" height="40" rx="12" fill="#f4e3d3" />
  <rect x="320" y="640" width="120" height="40" rx="12" fill="#f4e3d3" />
  <rect x="480" y="640" width="120" height="40" rx="12" fill="#f4e3d3" />
  <rect x="640" y="640" width="120" height="40" rx="12" fill="#f4e3d3" />
  <rect x="800" y="640" width="120" height="40" rx="12" fill="#f4e3d3" />
  <rect x="960" y="640" width="120" height="40" rx="12" fill="#f4e3d3" />
  <circle cx="260" cy="630" r="90" fill="#2a623d" />
  <circle cx="950" cy="630" r="90" fill="#2a623d" />
  <rect x="240" y="660" width="40" height="140" rx="14" fill="#2d2d2d" />
  <rect x="930" y="660" width="40" height="140" rx="14" fill="#2d2d2d" />
  <text x="120" y="140" font-family="'Playfair Display', serif" font-size="64" fill="#fff">Centro storico</text>
  <text x="120" y="190" font-family="Inter" font-size="26" fill="#f5f5f5">Tra palazzi liberty, carrozze e mercati vivaci</text>
</svg>
