<svg xmlns="http://www.w3.org/2000/svg" viewBox="0 0 1200 800" fill="none">
  <defs>
    <linearGradient id="wall2" x1="0" x2="0" y1="0" y2="1">
      <stop offset="0%" stop-color="#dbe4ec" />
      <stop offset="100%" stop-color="#c6d6e2" />
    </linearGradient>
  </defs>
  <rect width="1200" height="800" rx="36" fill="url(#wall2)" />
  <rect x="120" y="340" width="760" height="300" rx="20" fill="#fefefe" stroke="#d2c6bb" stroke-width="10" />
  <rect x="120" y="520" width="760" height="120" rx="14" fill="#ede7de" />
  <rect x="180" y="380" width="120" height="120" rx="12" fill="#f4f0ea" stroke="#d2c6bb" stroke-width="6" />
  <rect x="340" y="380" width="120" height="120" rx="12" fill="#f4f0ea" stroke="#d2c6bb" stroke-width="6" />
  <rect x="500" y="380" width="120" height="120" rx="12" fill="#f4f0ea" stroke="#d2c6bb" stroke-width="6" />
  <rect x="660" y="380" width="120" height="120" rx="12" fill="#f4f0ea" stroke="#d2c6bb" stroke-width="6" />
  <rect x="240" y="460" width="520" height="20" rx="10" fill="#d14f4f" />
  <rect x="930" y="360" width="140" height="280" rx="18" fill="#0e1218" />
  <rect x="900" y="320" width="200" height="30" rx="12" fill="#0e1218" />
  <rect x="210" y="520" width="360" height="120" rx="18" fill="#f8f8f8" stroke="#d2c6bb" stroke-width="8" />
  <rect x="620" y="520" width="200" height="120" rx="18" fill="#f8f8f8" stroke="#d2c6bb" stroke-width="8" />
  <rect x="360" y="250" width="360" height="40" rx="12" fill="#f9f3ea" stroke="#d2c6bb" stroke-width="8" />
  <rect x="350" y="210" width="380" height="40" rx="12" fill="#f9f3ea" stroke="#d2c6bb" stroke-width="8" />
  <circle cx="420" cy="270" r="10" fill="#d14f4f" />
  <circle cx="460" cy="270" r="10" fill="#2f8f68" />
  <circle cx="500" cy="270" r="10" fill="#f2b441" />
  <text x="140" y="170" font-family="'Playfair Display', serif" font-size="60" fill="#2a3f52">Cucina contemporanea</text>
  <text x="140" y="220" font-family="Inter" font-size="26" fill="#3b5568">Top in marmo, luci a LED e comfort per chi ama cucinare</text>
</svg>
