<svg xmlns="http://www.w3.org/2000/svg" viewBox="0 0 1200 800" fill="none">
  <defs>
    <linearGradient id="sky" x1="0" x2="0" y1="0" y2="1">
      <stop offset="0%" stop-color="#a6d8ff" />
      <stop offset="100%" stop-color="#5aa5e6" />
    </linearGradient>
    <linearGradient id="wall" x1="0" x2="1" y1="0" y2="0">
      <stop offset="0%" stop-color="#f65b6a" />
      <stop offset="100%" stop-color="#f48996" />
    </linearGradient>
  </defs>
  <rect width="1200" height="800" rx="36" fill="url(#sky)" />
  <rect x="40" y="200" width="340" height="560" rx="28" fill="url(#wall)" />
  <rect x="380" y="200" width="780" height="560" rx="28" fill="#fdfcfb" />
  <rect x="380" y="540" width="780" height="220" rx="0" fill="#d1a47f" />
  <rect x="460" y="360" width="480" height="260" rx="30" fill="#ffffff" stroke="#d9c7b5" stroke-width="10" />
  <rect x="600" y="280" width="320" height="120" rx="18" fill="#fffbf5" stroke="#d9c7b5" stroke-width="8" />
  <line x1="620" y1="320" x2="900" y2="320" stroke="#d9c7b5" stroke-width="10" stroke-linecap="round" />
  <line x1="620" y1="360" x2="900" y2="360" stroke="#d9c7b5" stroke-width="10" stroke-linecap="round" />
  <line x1="620" y1="400" x2="820" y2="400" stroke="#d9c7b5" stroke-width="10" stroke-linecap="round" />
  <circle cx="520" cy="460" r="26" fill="#f7d37c" />
  <circle cx="580" cy="460" r="20" fill="#5abf8c" />
  <circle cx="640" cy="460" r="16" fill="#ffb26b" />
  <rect x="480" y="600" width="540" height="110" rx="22" fill="#ffffff" stroke="#d9c7b5" stroke-width="8" />
  <rect x="520" y="620" width="120" height="70" rx="14" fill="#f0f0f0" />
  <rect x="680" y="620" width="120" height="70" rx="14" fill="#f0f0f0" />
  <rect x="840" y="620" width="120" height="70" rx="14" fill="#f0f0f0" />
  <rect x="1020" y="520" width="40" height="150" rx="10" fill="#1b7bbd" />
  <rect x="1040" y="320" width="30" height="220" rx="12" fill="#ffffff" stroke="#d9c7b5" stroke-width="8" />
  <text x="80" y="160" font-family="'Playfair Display', serif" font-size="60" fill="#fff">Terrazza privata</text>
  <text x="80" y="210" font-family="Inter" font-size="26" fill="#ffe9ef">Aperitivi al sole con vista sui tetti storici</text>
</svg>
