<svg xmlns="http://www.w3.org/2000/svg" viewBox="0 0 1200 800" fill="none">
  <defs>
    <linearGradient id="sky2" x1="0" x2="0" y1="0" y2="1">
      <stop offset="0%" stop-color="#7ac5ff" />
      <stop offset="100%" stop-color="#2b77c4" />
    </linearGradient>
  </defs>
  <rect width="1200" height="800" rx="36" fill="url(#sky2)" />
  <rect x="80" y="420" width="1040" height="280" rx="24" fill="#f7f2eb" stroke="#d3c2b2" stroke-width="10" />
  <rect x="140" y="300" width="280" height="240" rx="36" fill="#fdfcfb" stroke="#d3c2b2" stroke-width="10" />
  <rect x="440" y="260" width="320" height="280" rx="36" fill="#fff" stroke="#d3c2b2" stroke-width="10" />
  <rect x="800" y="320" width="220" height="220" rx="36" fill="#f7e2cf" stroke="#d3c2b2" stroke-width="10" />
  <rect x="880" y="200" width="120" height="220" rx="36" fill="#d0a07c" stroke="#c38b68" stroke-width="10" />
  <rect x="210" y="340" width="120" height="110" rx="18" fill="#d35050" />
  <rect x="500" y="320" width="80" height="130" rx="12" fill="#2f2f2f" />
  <rect x="620" y="320" width="80" height="130" rx="12" fill="#2f2f2f" />
  <rect x="860" y="240" width="40" height="120" rx="12" fill="#2f2f2f" />
  <rect x="980" y="360" width="30" height="120" rx="10" fill="#2f2f2f" />
  <rect x="120" y="540" width="960" height="110" rx="18" fill="#d3bfa5" />
  <circle cx="260" cy="600" r="74" fill="#4b7045" />
  <circle cx="940" cy="600" r="74" fill="#4b7045" />
  <rect x="210" y="620" width="100" height="20" rx="10" fill="#2f2f2f" />
  <rect x="890" y="620" width="100" height="20" rx="10" fill="#2f2f2f" />
  <text x="120" y="160" font-family="'Playfair Display', serif" font-size="64" fill="#fff">Villa mediterranea</text>
  <text x="120" y="210" font-family="Inter" font-size="26" fill="#f5f5f5">Curve morbide, portico ombreggiato e verde privato</text>
</svg>
